<svg xmlns="http://www.w3.org/2000/svg">

    <!--  Example-->

    <symbol id="cellphone" viewBox="0 0 24 24">
        <svg xmlns="http://www.w3.org/2000/svg" xmlns:xlink="http://www.w3.org/1999/xlink" version="1.1" width="24"
             height="24"
             viewBox="0 0 24 24">
            <path d="M17,19H7V5H17M17,1H7C5.89,1 5,1.89 5,3V21A2,2 0 0,0 7,23H17A2,2 0 0,0 19,21V3C19,1.89 18.1,1 17,1Z"/>
        </svg>
    </symbol>

    <symbol id="left-circle" viewBox="0 0 24 24">

        <svg xmlns="http://www.w3.org/2000/svg" xmlns:xlink="http://www.w3.org/1999/xlink" version="1.1" width="24"
             height="24"
             viewBox="0 0 24 24">
            <path d="M22,12A10,10 0 0,1 12,22A10,10 0 0,1 2,12A10,10 0 0,1 12,2A10,10 0 0,1 22,12M20,12A8,8 0 0,0 12,4A8,8 0 0,0 4,12A8,8 0 0,0 12,20A8,8 0 0,0 20,12M15.4,16.6L10.8,12L15.4,7.4L14,6L8,12L14,18L15.4,16.6Z"/>
        </svg>
    </symbol>
    <symbol id="address" viewBox="0 0 24 24">

        <svg xmlns="http://www.w3.org/2000/svg" xmlns:xlink="http://www.w3.org/1999/xlink" version="1.1" width="24"
             height="24"
             viewBox="0 0 24 24">
            <path d="M12,11.5A2.5,2.5 0 0,1 9.5,9A2.5,2.5 0 0,1 12,6.5A2.5,2.5 0 0,1 14.5,9A2.5,2.5 0 0,1 12,11.5M12,2A7,7 0 0,0 5,9C5,14.25 12,22 12,22C12,22 19,14.25 19,9A7,7 0 0,0 12,2Z"/>
        </svg>
    </symbol>
    <symbol id="clipboard" viewBox="0 0 24 24">

        <svg xmlns="http://www.w3.org/2000/svg" xmlns:xlink="http://www.w3.org/1999/xlink" version="1.1" width="24"
             height="24"
             viewBox="0 0 24 24">
            <path d="M4 7V21H18V23H4C2.9 23 2 22.1 2 21V7H4M20 3C21.1 3 22 3.9 22 5V17C22 18.1 21.1 19 20 19H8C6.9 19 6 18.1 6 17V5C6 3.9 6.9 3 8 3H11.18C11.6 1.84 12.7 1 14 1C15.3 1 16.4 1.84 16.82 3H20M14 3C13.45 3 13 3.45 13 4C13 4.55 13.45 5 14 5C14.55 5 15 4.55 15 4C15 3.45 14.55 3 14 3M10 7V5H8V17H20V5H18V7H10Z"/>
        </svg>
    </symbol>
    <symbol id="person" viewBox="0 0 129 128">
        <svg width="129" height="128" viewBox="0 0 129 128" fill="none" xmlns="http://www.w3.org/2000/svg">
            <g clip-path="url(#clip0)">
          <path d="M128.5 64.0001C128.5 76.6581 124.746 89.0319 117.714 99.5566C110.682 110.081 100.686 118.284 88.9918 123.128C77.2973 127.972 64.429 129.24 52.0143 126.77C39.5995 124.301 28.1958 118.206 19.2452 109.255C10.2946 100.304 4.19922 88.9007 1.72977 76.4859C-0.739683 64.0711 0.52773 51.2028 5.37174 39.5084C10.2157 27.8139 18.4188 17.8185 28.9435 10.786C39.4683 3.75364 51.842 0.000102098 64.5 0.000102098C72.9089 -0.0149306 81.2379 1.63022 89.0095 4.8412C96.7812 8.05217 103.842 12.7658 109.788 18.7117C115.734 24.6577 120.448 31.719 123.659 39.4906C126.87 47.2622 128.515 55.5913 128.5 64.0001Z" fill="#CDCDCD"/>
          <path d="M64.5001 81.3641C76.8302 81.3641 86.8257 71.3685 86.8257 59.0385C86.8257 46.7084 76.8302 36.7129 64.5001 36.7129C52.1701 36.7129 42.1746 46.7084 42.1746 59.0385C42.1746 71.3685 52.1701 81.3641 64.5001 81.3641Z" fill="#E5E5E5"/>
          <path d="M105.311 113.305C93.8336 122.807 79.4003 128.006 64.5001 128.006C49.5999 128.006 35.1667 122.807 23.689 113.305C32.2521 98.8779 47.3293 89.3027 64.5001 89.3027C81.671 89.3027 96.7482 98.8779 105.311 113.305Z" fill="#E5E5E5"/>
        </g>
        <defs>
          <clipPath id="clip0">
            <rect width="128" height="128" fill="white" transform="translate(0.5)"/>
          </clipPath>
        </defs>
      </svg>
  </symbol>
  <symbol id="help" viewBox="0 0 129 128">
  <svg style="width:24px;height:24px" viewBox="0 0 24 24">
    <path fill="currentColor" d="M13,8A4,4 0 0,1 9,12A4,4 0 0,1 5,8A4,4 0 0,1 9,4A4,4 0 0,1 13,8M17,18V20H1V18C1,15.79 4.58,14 9,14C13.42,14 17,15.79 17,18M20.5,14.5V16H19V14.5H20.5M18.5,9.5H17V9A3,3 0 0,1 20,6A3,3 0 0,1 23,9C23,9.97 22.5,10.88 21.71,11.41L21.41,11.6C20.84,12 20.5,12.61 20.5,13.3V13.5H19V13.3C19,12.11 19.6,11 20.59,10.35L20.88,10.16C21.27,9.9 21.5,9.47 21.5,9A1.5,1.5 0 0,0 20,7.5A1.5,1.5 0 0,0 18.5,9V9.5Z" />
  </svg>
  </symbol>
    <symbol id="search" viewBox="0 0 24 24">
      <svg width="24" height="24" viewBox="0 0 24 24" fill="none" xmlns="http://www.w3.org/2000/svg">
        <path fill-rule="evenodd" clip-rule="evenodd" d="M11 3C6.58172 3 3 6.58172 3 11C3 15.4183 6.58172 19 11 19C15.4183 19 19 15.4183 19 11C19 6.58172 15.4183 3 11 3ZM1 11C1 5.47715 5.47715 1 11 1C16.5228 1 21 5.47715 21 11C21 16.5228 16.5228 21 11 21C5.47715 21 1 16.5228 1 11Z" fill="#14142B"/>
        <path fill-rule="evenodd" clip-rule="evenodd" d="M17.2929 17.2929C17.6834 16.9024 18.3166 16.9024 18.7071 17.2929L22.7071 21.2929C23.0976 21.6834 23.0976 22.3166 22.7071 22.7071C22.3166 23.0976 21.6834 23.0976 21.2929 22.7071L17.2929 18.7071C16.9024 18.3166 16.9024 17.6834 17.2929 17.2929Z" fill="#14142B"/>
      </svg>
  </symbol>

  <symbol id="date" viewBox="0 0 18 18">
    <svg width="24" height="24" viewBox="0 0 24 24" fill="none" xmlns="http://www.w3.org/2000/svg">
      <path fill-rule="evenodd" clip-rule="evenodd" d="M1 6C1 3.79086 2.79086 2 5 2H19C21.2091 2 23 3.79086 23 6V19C23 21.2091 21.2091 23 19 23H5C2.79086 23 1 21.2091 1 19V6ZM5 4C3.89543 4 3 4.89543 3 6V19C3 20.1046 3.89543 21 5 21H19C20.1046 21 21 20.1046 21 19V6C21 4.89543 20.1046 4 19 4H5Z" fill="#14142B"/>
      <path fill-rule="evenodd" clip-rule="evenodd" d="M7 0C7.55228 0 8 0.447715 8 1V3C8 3.55228 7.55228 4 7 4C6.44772 4 6 3.55228 6 3V1C6 0.447715 6.44772 0 7 0Z" fill="#14142B"/>
      <path fill-rule="evenodd" clip-rule="evenodd" d="M17 0C17.5523 0 18 0.447715 18 1V3C18 3.55228 17.5523 4 17 4C16.4477 4 16 3.55228 16 3V1C16 0.447715 16.4477 0 17 0Z" fill="#14142B"/>
      <path fill-rule="evenodd" clip-rule="evenodd" d="M1 8C1 7.44772 1.44772 7 2 7H22C22.5523 7 23 7.44772 23 8C23 8.55228 22.5523 9 22 9H2C1.44772 9 1 8.55228 1 8Z" fill="#14142B"/>
      <path fill-rule="evenodd" clip-rule="evenodd" d="M5.5 13C5.5 12.4477 5.94772 12 6.5 12H7.5C8.05228 12 8.5 12.4477 8.5 13C8.5 13.5523 8.05228 14 7.5 14H6.5C5.94772 14 5.5 13.5523 5.5 13Z" fill="#14142B"/>
      <path fill-rule="evenodd" clip-rule="evenodd" d="M10.5 13C10.5 12.4477 10.9477 12 11.5 12H12.5C13.0523 12 13.5 12.4477 13.5 13C13.5 13.5523 13.0523 14 12.5 14H11.5C10.9477 14 10.5 13.5523 10.5 13Z" fill="#14142B"/>
      <path fill-rule="evenodd" clip-rule="evenodd" d="M15.5 13C15.5 12.4477 15.9477 12 16.5 12H17.5C18.0523 12 18.5 12.4477 18.5 13C18.5 13.5523 18.0523 14 17.5 14H16.5C15.9477 14 15.5 13.5523 15.5 13Z" fill="#14142B"/>
      <path fill-rule="evenodd" clip-rule="evenodd" d="M5.5 17C5.5 16.4477 5.94772 16 6.5 16H7.5C8.05228 16 8.5 16.4477 8.5 17C8.5 17.5523 8.05228 18 7.5 18H6.5C5.94772 18 5.5 17.5523 5.5 17Z" fill="#14142B"/>
      <path fill-rule="evenodd" clip-rule="evenodd" d="M10.5 17C10.5 16.4477 10.9477 16 11.5 16H12.5C13.0523 16 13.5 16.4477 13.5 17C13.5 17.5523 13.0523 18 12.5 18H11.5C10.9477 18 10.5 17.5523 10.5 17Z" fill="#14142B"/>
      <path fill-rule="evenodd" clip-rule="evenodd" d="M15.5 17C15.5 16.4477 15.9477 16 16.5 16H17.5C18.0523 16 18.5 16.4477 18.5 17C18.5 17.5523 18.0523 18 17.5 18H16.5C15.9477 18 15.5 17.5523 15.5 17Z" fill="#14142B"/>
    </svg>
  </symbol>

  <symbol id="arrow-line" viewBox="0 0 179 349">
    <svg width="179" height="350" viewBox="0 0 179 350" fill="none" xmlns="http://www.w3.org/2000/svg">
      <path d="M100.229 0.950195C80.4033 10.7163 60.4878 20.805 43.0767 35.1871C25.6656 49.5693 10.7489 68.779 4.24344 91.8261C-2.26202 114.873 0.801137 142.002 15.2189 160.022C26.9427 174.66 44.5035 181.812 61.7649 185.694C91.4608 192.394 122.158 191.163 151.345 182.101C162.19 178.764 174.134 172.713 177.287 160.667C179.851 150.912 175.291 140.034 167.918 133.972C160.544 127.909 151.055 126.096 141.976 126.386C117.031 127.186 93.5239 143.137 78.7669 165.583C64.0099 188.03 57.4446 216.305 57.2051 244.135C56.995 281.195 67.3124 317.379 86.6792 347.502" stroke="#A0A3BD" stroke-width="2" stroke-miterlimit="10"/>
      <path d="M70.9544 341.418C71.054 341.145 71.2464 340.928 71.4896 340.813C71.7327 340.699 72.0066 340.696 72.2515 340.806L86.3998 347.191L85.6016 330.195C85.5884 329.9 85.6808 329.611 85.8586 329.392C86.0364 329.173 86.2849 329.042 86.5495 329.027C86.8141 329.012 87.0732 329.115 87.2697 329.313C87.4661 329.511 87.5839 329.788 87.5972 330.083L88.4752 348.815C88.4844 349.002 88.4507 349.19 88.3775 349.359C88.3042 349.528 88.1936 349.674 88.0561 349.783C87.9144 349.899 87.7473 349.972 87.5721 349.994C87.3968 350.015 87.2196 349.985 87.0584 349.905L71.4532 342.875C71.2765 342.795 71.1242 342.66 71.0142 342.486C70.9245 342.328 70.872 342.147 70.8616 341.96C70.8511 341.774 70.883 341.587 70.9544 341.418Z" fill="#A0A3BD"/>
    </svg>

  </symbol>

  <symbol id="arrow-line" viewBox="0 0 179 349">
    <svg width="179" height="350" viewBox="0 0 179 350" fill="none" xmlns="http://www.w3.org/2000/svg">
      <g clip-path="url(#clip0)">
        <path d="M100.229 0.950195C80.4033 10.7163 60.4878 20.805 43.0767 35.1871C25.6656 49.5693 10.7489 68.779 4.24344 91.8261C-2.26202 114.873 0.801137 142.002 15.2189 160.022C26.9427 174.66 44.5035 181.812 61.7649 185.694C91.4608 192.394 122.158 191.163 151.345 182.101C162.19 178.764 174.134 172.713 177.287 160.667C179.851 150.912 175.291 140.034 167.918 133.972C160.544 127.909 151.055 126.096 141.976 126.386C117.031 127.186 93.5239 143.137 78.7669 165.583C64.0099 188.03 57.4446 216.305 57.2051 244.135C56.995 281.195 67.3124 317.379 86.6792 347.502" stroke="#A0A3BD" stroke-width="2" stroke-miterlimit="10"/>
        <path d="M70.9544 341.418C71.054 341.145 71.2464 340.928 71.4896 340.813C71.7327 340.699 72.0066 340.696 72.2515 340.806L86.3998 347.191L85.6016 330.195C85.5884 329.9 85.6808 329.611 85.8586 329.392C86.0364 329.173 86.2849 329.042 86.5495 329.027C86.8141 329.012 87.0732 329.115 87.2697 329.313C87.4661 329.511 87.5839 329.788 87.5972 330.083L88.4752 348.815C88.4844 349.002 88.4507 349.19 88.3775 349.359C88.3042 349.528 88.1936 349.674 88.0561 349.783C87.9144 349.899 87.7473 349.972 87.5721 349.994C87.3968 350.015 87.2196 349.985 87.0584 349.905L71.4532 342.875C71.2765 342.795 71.1242 342.66 71.0142 342.486C70.9245 342.328 70.872 342.147 70.8616 341.96C70.8511 341.774 70.883 341.587 70.9544 341.418Z" fill="#A0A3BD"/>
      </g>
      <defs>
        <clipPath id="clip0">
          <rect width="179" height="350" fill="white"/>
        </clipPath>
      </defs>
    </svg>
  </symbol>

</svg>
